<svg width="31" height="32" viewBox="0 0 31 32" fill="none" xmlns="http://www.w3.org/2000/svg">
<rect x="1.5" y="2.5" width="28" height="28" rx="2.5" fill="#0B0B0B" stroke="#3D3C3C" stroke-width="3"/>
<path d="M15.2312 1.28291C-1.23235 -0.540728 0.0219286 6.70957 0.0219286 15.6005C0.933134 30.1887 -1.26412 28.9595 5.15041 31.1005C6.26346 30.3248 11.2422 30.9861 11.2422 30.5694C11.2422 30.172 11.2229 27.9797 11.2229 26.6336C11.2229 26.6336 6.71924 27.5951 5.77347 24.7233C5.77347 24.7233 5.04001 22.858 3.98487 22.3772C3.98487 22.3772 2.51152 21.3708 4.08781 21.3901C4.08781 21.3901 5.68983 21.5183 6.57127 23.0439C7.98027 25.5182 10.3415 24.8067 11.2615 24.3836C11.4095 23.358 11.8277 22.6464 12.2909 22.2234C8.69443 21.8259 5.60629 20.4299 5.15041 15.871C5.15041 14.1082 5.55472 12.4928 6.58413 11.3646C6.41685 10.9479 5.86998 9.22999 6.75141 7.01207C8.09608 6.59541 11.1907 8.74282 11.1907 8.74282C12.4775 8.38385 13.8608 8.19795 15.2312 8.19795C16.6016 8.19795 17.9849 8.38385 19.2716 8.74282C19.2716 8.74282 22.3663 6.589 23.711 7.01207C24.5924 9.2364 24.0455 10.9479 23.8782 11.3646C24.9077 12.4992 25.6651 14.1147 25.6651 15.871C25.6651 20.8857 21.7486 21.8195 18.1521 22.2234C18.7441 22.7298 19.2459 23.6913 19.2459 25.1977C19.2459 27.3579 19.2266 30.031 19.2266 30.5566C19.2266 30.9732 25.1682 31.2479 25.9853 31.1005C32.4191 28.9723 30.2238 23.1208 30.2238 16.0119C30.2238 5.38894 32.9591 -0.540724 15.2312 1.28291Z" fill="#3D3C3C"/>
</svg>
