<svg width="31" height="31" viewBox="0 0 31 31" fill="none" xmlns="http://www.w3.org/2000/svg">
<rect width="31" height="31" rx="4" fill="#3D3C3C"/>
<path fill-rule="evenodd" clip-rule="evenodd" d="M20.326 10.4763C19.9401 10.8718 19.3105 10.8701 18.8526 10.5608C17.925 9.93392 16.8281 9.60285 15.7022 9.62069C13.0329 9.62069 10.766 11.4661 9.95766 13.951C9.52928 15.2526 9.52908 16.662 9.95708 17.9637C9.95742 17.9648 9.95842 17.9655 9.95954 17.9655C9.96066 17.9655 9.96165 17.9662 9.962 17.9673C10.7746 20.4475 13.0373 22.292 15.7059 22.292C17.0833 22.292 18.2658 21.9311 19.1824 21.2937C19.1831 21.2932 19.1835 21.2925 19.1835 21.2916C19.1835 21.2908 19.1839 21.2901 19.1846 21.2896C19.9353 20.78 20.5202 20.0671 20.8838 19.2418C21.1344 18.6729 20.6588 18.1042 20.0372 18.1042H16.7022C16.1499 18.1042 15.7022 17.6565 15.7022 17.1042V15.0667C15.7022 14.5144 16.1499 14.0667 16.7022 14.0667H24.5098C24.9968 14.0667 25.4173 14.4173 25.4658 14.9019C25.5088 15.3322 25.5295 15.7654 25.5295 16.1972C25.5295 19.3857 24.4177 22.0815 22.4832 23.9076C22.4827 23.9081 22.4828 23.9089 22.4833 23.9093C22.4838 23.9097 22.4839 23.9105 22.4834 23.911C20.7879 25.5131 18.4611 26.4413 15.7022 26.4413C11.8336 26.4413 8.29596 24.2068 6.55907 20.6662C5.10791 17.7035 5.10792 14.213 6.55908 11.2504C8.29597 7.70596 11.8336 5.47141 15.7022 5.47141C17.9094 5.44464 20.0514 6.17924 21.7883 7.53892C22.2253 7.88103 22.2325 8.52257 21.8449 8.91979L20.326 10.4763Z" fill="#0B0B0B"/>
</svg>
