<svg width="31" height="31" viewBox="0 0 31 31" fill="none" xmlns="http://www.w3.org/2000/svg">
<rect x="2.73535" y="3.64746" width="26.4412" height="23.7059" fill="#0B0B0B"/>
<rect x="1" y="1" width="29" height="29" rx="3" stroke="#3D3C3C" stroke-width="2"/>
<path d="M26.34 0.912109L2.82245 1.85237C1.53577 1.85237 0.912109 5.35483 0.912109 6.55365L0.912518 27.2393C0.912518 28.4381 5.20518 31.0003 6.49186 31.0003H26.34C27.6267 31.0003 31.0003 27.0219 31.0003 25.8289V5.06099C31.0003 3.86217 27.6267 0.912109 26.34 0.912109ZM8.83128 25.5518C8.83128 26.104 8.38357 26.5518 7.83128 26.5518H5.15244C4.60016 26.5518 4.15244 26.104 4.15244 25.5518V13.1893C4.15244 12.637 4.60016 12.1893 5.15244 12.1893H7.83128C8.38357 12.1893 8.83128 12.637 8.83128 13.1893V25.5518ZM6.49186 10.2324C4.98971 10.2324 3.77691 9.07472 3.77691 7.6467C3.77691 6.21869 4.98971 5.06099 6.49186 5.06099C7.98786 5.06099 9.20066 6.21869 9.20066 7.6467C9.20066 9.06884 7.98786 10.2324 6.49186 10.2324ZM26.34 25.5518C26.34 26.104 25.8923 26.5518 25.34 26.5518H22.6673C22.115 26.5518 21.6673 26.104 21.6673 25.5518V19.5703C21.6673 17.9073 21.6365 15.7623 19.2355 15.7623C16.8038 15.7623 16.4344 17.5782 16.4344 19.4528V25.5518C16.4344 26.104 15.9867 26.5518 15.4344 26.5518H12.7679C12.2156 26.5518 11.7679 26.104 11.7679 25.5518V13.1893C11.7679 12.637 12.2156 12.1893 12.7679 12.1893H15.2683C15.8103 12.1893 16.2497 12.6287 16.2497 13.1707V14.1134C16.2497 14.1348 16.267 14.1521 16.2884 14.1521V14.1521C16.3025 14.1521 16.3154 14.1446 16.3223 14.1323C16.9509 13.0099 18.4731 11.8308 20.7315 11.8308C25.4658 11.8308 26.34 14.8044 26.34 18.6712V25.5518Z" fill="#3D3C3C"/>
</svg>
