<svg width="67" height="66" viewBox="0 0 67 66" fill="none" xmlns="http://www.w3.org/2000/svg">
<path d="M63 63V3H21.7444L4 53.9091V63H63Z" stroke="#A472F4"/>
<path d="M63 63V3H21.7444L4 53.9091V63H63Z" stroke="url(#paint0_linear_57_792)" stroke-opacity="0.8"/>
<path d="M30.4581 30L27.5596 21.6533H27.5049C27.5824 22.8929 27.6212 24.055 27.6212 25.1396V30H26.1378V20.0059H28.4415L31.2169 27.9561H31.2579L34.1153 20.0059H36.4258V30H34.8536V25.0576C34.8536 24.5609 34.865 23.9137 34.8878 23.1162C34.9151 22.3187 34.9379 21.8356 34.9561 21.667H34.9014L31.9005 30H30.4581ZM49.7477 30H44.0944V20.0059H49.7477V21.3867H45.7282V24.1074H49.4948V25.4746H45.7282V28.6123H49.7477V30ZM34.1563 49H32.1534L27.2383 41.0361H27.1837L27.2178 41.4805C27.2816 42.3281 27.3135 43.1029 27.3135 43.8047V49H25.8301V39.0059H27.8126L32.7139 46.9287H32.7549C32.7458 46.8239 32.7276 46.4434 32.7003 45.7871C32.6729 45.1263 32.6592 44.6113 32.6592 44.2422V39.0059H34.1563V49ZM49.6657 39.0059V45.4727C49.6657 46.2109 49.5062 46.8581 49.1872 47.4141C48.8727 47.9655 48.4147 48.3916 47.8131 48.6924C47.2161 48.9886 46.5006 49.1367 45.6667 49.1367C44.4271 49.1367 43.4632 48.8086 42.7751 48.1523C42.0869 47.4961 41.7428 46.5938 41.7428 45.4453V39.0059H43.3835V45.3291C43.3835 46.154 43.5749 46.7624 43.9577 47.1543C44.3405 47.5462 44.9284 47.7422 45.7214 47.7422C47.2617 47.7422 48.0319 46.9333 48.0319 45.3154V39.0059H49.6657Z" fill="#A472F4"/>
<defs>
<linearGradient id="paint0_linear_57_792" x1="-6.203" y1="65.7273" x2="84.2605" y2="-7.10948" gradientUnits="userSpaceOnUse">
<stop stop-color="#A472F4"/>
<stop offset="1" stop-color="#6C70FB"/>
</linearGradient>
</defs>
</svg>
